<svg version="1.1" xmlns="http://www.w3.org/2000/svg" viewBox="0 0 467.40456056843004 607.3462719816445" width="467.40456056843004" height="607.3462719816445">
  <!-- svg-source:excalidraw -->

  <g stroke-linecap="round"><g transform="translate(94.03804411481036 442.7471734042837) rotate(0 164.70550512997045 -170.7716639355658)" fill-rule="evenodd"><path d="M0 0 L-21.57 -36.42 L-27.56 -50.22 L-30.72 -62.66 L-32.3 -74.98 L-33.47 -132.54 L-30.38 -164.93 L-26.46 -180.78 L-21.17 -196.69 L-9.31 -226.17 L1.55 -249.81 L14.8 -271.4 L33.19 -294.41 L55.12 -316.19 L80.69 -335.65 L107.58 -351.57 L120.68 -357.08 L158.59 -368.05 L187.45 -378.77 L199.38 -381.92 L215.61 -384.94 L284.58 -393.92 L294.79 -392.65 L305.06 -388.5 L309.73 -384.48 L314.55 -377.79 L319.61 -367.55 L324.71 -354.5 L350.77 -281.76 L354.5 -267.83 L356.38 -255.62 L357.57 -219.96 L362.64 -151.89 L363.36 -117.28 L362.71 -100.14 L360.48 -83.61 L356.28 -67.3 L350.54 -51.17 L343.83 -36.12 L336.72 -23.03 L329.49 -12.54 L321.8 -4.04 L303.53 10.83 L280.54 25.99 L267.36 32.78 L252.91 38.49 L237.15 43.3 L220.13 47.34 L201.93 50.11 L182.63 51.11 L161.1 49.75 L137.68 46.45 L77.41 34.1 L62.57 29.87 L37.17 20.73 L25.59 15.3 L0 0" stroke="none" stroke-width="0" fill="#b5c3af" fill-rule="evenodd"/><path d="M0 0 C-4.59 -8.37, -22.03 -33.32, -27.56 -50.22 C-33.1 -67.12, -32.76 -82.29, -33.23 -101.41 C-33.7 -120.53, -34.36 -144.14, -30.38 -164.93 C-26.39 -185.73, -16.84 -208.42, -9.31 -226.17 C-1.78 -243.91, 4.07 -256.4, 14.8 -271.4 C25.54 -286.41, 39.66 -302.83, 55.12 -316.19 C70.59 -329.55, 90.34 -342.92, 107.58 -351.57 C124.83 -360.21, 143.29 -362.99, 158.59 -368.05 C173.89 -373.1, 181.1 -377.91, 199.38 -381.92 C217.65 -385.92, 252.33 -390.27, 268.23 -392.06 C284.14 -393.85, 287.07 -395.03, 294.79 -392.65 C302.51 -390.27, 307.88 -388.93, 314.55 -377.79 C321.23 -366.65, 328.2 -344.15, 334.86 -325.82 C341.51 -307.5, 350.71 -285.47, 354.5 -267.83 C358.28 -250.18, 356.21 -239.28, 357.57 -219.96 C358.92 -200.64, 362.15 -174.61, 362.64 -151.89 C363.12 -129.16, 364.8 -105.09, 360.48 -83.61 C356.16 -62.13, 346.21 -38.77, 336.72 -23.03 C327.23 -7.29, 317.49 0.57, 303.53 10.83 C289.56 21.08, 273.06 31.77, 252.91 38.49 C232.76 45.2, 209.06 51.18, 182.63 51.11 C156.21 51.03, 118.61 43.11, 94.37 38.05 C70.12 32.99, 52.89 27.07, 37.17 20.73 C21.44 14.39, 6.19 3.45, 0 0 M0 0 C-4.59 -8.37, -22.03 -33.32, -27.56 -50.22 C-33.1 -67.12, -32.76 -82.29, -33.23 -101.41 C-33.7 -120.53, -34.36 -144.14, -30.38 -164.93 C-26.39 -185.73, -16.84 -208.42, -9.31 -226.17 C-1.78 -243.91, 4.07 -256.4, 14.8 -271.4 C25.54 -286.41, 39.66 -302.83, 55.12 -316.19 C70.59 -329.55, 90.34 -342.92, 107.58 -351.57 C124.83 -360.21, 143.29 -362.99, 158.59 -368.05 C173.89 -373.1, 181.1 -377.91, 199.38 -381.92 C217.65 -385.92, 252.33 -390.27, 268.23 -392.06 C284.14 -393.85, 287.07 -395.03, 294.79 -392.65 C302.51 -390.27, 307.88 -388.93, 314.55 -377.79 C321.23 -366.65, 328.2 -344.15, 334.86 -325.82 C341.51 -307.5, 350.71 -285.47, 354.5 -267.83 C358.28 -250.18, 356.21 -239.28, 357.57 -219.96 C358.92 -200.64, 362.15 -174.61, 362.64 -151.89 C363.12 -129.16, 364.8 -105.09, 360.48 -83.61 C356.16 -62.13, 346.21 -38.77, 336.72 -23.03 C327.23 -7.29, 317.49 0.57, 303.53 10.83 C289.56 21.08, 273.06 31.77, 252.91 38.49 C232.76 45.2, 209.06 51.18, 182.63 51.11 C156.21 51.03, 118.61 43.11, 94.37 38.05 C70.12 32.99, 52.89 27.07, 37.17 20.73 C21.44 14.39, 6.19 3.45, 0 0" stroke="transparent" stroke-width="2" fill="none"/></g></g><mask/><g stroke-linecap="round"><g transform="translate(216.95822563167735 593.9829907316446) rotate(0 -2.432095981667544 -291.8977039674381)"><path d="M0 0 C-2.08 -5.02, -9.01 -21.21, -12.49 -30.13 C-15.96 -39.04, -18.59 -46.47, -20.86 -53.51 C-23.13 -60.55, -24.33 -65.69, -26.11 -72.35 C-27.89 -79.02, -30.15 -86.67, -31.55 -93.51 C-32.94 -100.35, -33.76 -107.05, -34.46 -113.4 C-35.17 -119.74, -35.39 -124.22, -35.78 -131.58 C-36.18 -138.95, -37.05 -148.18, -36.84 -157.58 C-36.62 -166.99, -36.81 -176.19, -34.51 -188 C-32.21 -199.82, -28.05 -213.4, -23.03 -228.49 C-18.02 -243.57, -10.69 -261.82, -4.41 -278.5 C1.87 -295.18, 11.18 -317.14, 14.66 -328.57 C18.13 -340, 17.75 -342.75, 16.43 -347.07 C15.11 -351.4, 10.29 -354.87, 6.72 -354.53 C3.15 -354.18, -1.49 -349.94, -5.01 -345 C-8.53 -340.05, -11.97 -333.17, -14.41 -324.87 C-16.84 -316.57, -18.57 -305.49, -19.61 -295.21 C-20.65 -284.93, -20.84 -277.13, -20.66 -263.2 C-20.49 -249.26, -20.21 -226.94, -18.56 -211.62 C-16.92 -196.3, -14.67 -182.69, -10.79 -171.29 C-6.91 -159.89, -0.71 -150.1, 4.72 -143.24 C10.14 -136.38, 14.61 -132.22, 21.77 -130.12 C28.94 -128.03, 36.45 -128.98, 47.7 -130.67 C58.95 -132.36, 78.84 -136.86, 89.27 -140.26 C99.69 -143.66, 103.52 -146.84, 110.27 -151.06 C117.02 -155.28, 123.69 -160.47, 129.75 -165.57 C135.82 -170.66, 149.25 -178.91, 146.65 -181.64 C144.06 -184.37, 123.84 -181.26, 114.19 -181.95 C104.54 -182.63, 96.94 -184.04, 88.75 -185.76 C80.56 -187.49, 72.13 -189.81, 65.06 -192.31 C57.99 -194.8, 51.56 -197.15, 46.33 -200.74 C41.11 -204.33, 35.41 -209.57, 33.72 -213.86 C32.03 -218.16, 30.68 -224.31, 36.18 -226.49 C41.68 -228.67, 57.61 -226.93, 66.72 -226.92 C75.82 -226.9, 80.51 -226.63, 90.8 -226.41 C101.09 -226.19, 117.28 -225.83, 128.46 -225.58 C139.63 -225.33, 149.49 -222.91, 157.85 -224.93 C166.21 -226.94, 172.76 -229.26, 178.61 -237.67 C184.46 -246.09, 189.64 -264.11, 192.95 -275.42 C196.26 -286.73, 197.3 -297.95, 198.49 -305.55 C199.68 -313.14, 203.78 -321.64, 200.09 -320.98 C196.4 -320.33, 184.83 -307.63, 176.32 -301.62 C167.82 -295.6, 157.9 -289.35, 149.06 -284.9 C140.22 -280.45, 133.38 -277.16, 123.26 -274.91 C113.14 -272.66, 96.48 -270.63, 88.34 -271.4 C80.19 -272.18, 76.17 -276.43, 74.38 -279.57 C72.59 -282.71, 70.7 -285.22, 77.57 -290.25 C84.45 -295.29, 104.83 -304.08, 115.64 -309.79 C126.46 -315.51, 134.61 -320.24, 142.45 -324.55 C150.3 -328.85, 155.35 -329.42, 162.71 -335.62 C170.07 -341.81, 182.12 -351.5, 186.63 -361.73 C191.15 -371.95, 189.97 -386.28, 189.78 -396.97 C189.59 -407.66, 187.99 -422.58, 185.51 -425.86 C183.02 -429.15, 180.24 -421.02, 174.87 -416.66 C169.5 -412.3, 159.78 -404.85, 153.29 -399.7 C146.8 -394.55, 142.86 -390.79, 135.94 -385.79 C129.02 -380.78, 120.21 -373.8, 111.75 -369.68 C103.29 -365.56, 87.73 -359.05, 85.17 -361.07 C82.6 -363.09, 90.81 -374.25, 96.37 -381.8 C101.93 -389.34, 110.47 -397.11, 118.53 -406.35 C126.59 -415.6, 137.81 -428.87, 144.72 -437.25 C151.62 -445.63, 156.02 -448.76, 159.98 -456.64 C163.93 -464.52, 169.41 -474.03, 168.42 -484.54 C167.44 -495.05, 158.1 -509.82, 154.06 -519.7 C150.03 -529.58, 147.06 -535.92, 144.23 -543.82 C141.4 -551.72, 139.09 -560.44, 137.11 -567.11 C135.12 -573.77, 137.26 -582.36, 132.33 -583.8 C127.4 -585.23, 116.62 -578.03, 107.53 -575.72 C98.43 -573.42, 88.47 -571.54, 77.74 -569.97 C67.02 -568.39, 50.83 -568.22, 43.18 -566.29 C35.53 -564.35, 34.57 -564.21, 31.85 -558.36 C29.14 -552.51, 28.5 -542.04, 26.86 -531.2 C25.23 -520.37, 23.86 -504.71, 22.05 -493.34 C20.23 -481.96, 18.38 -470.94, 15.97 -462.97 C13.56 -455, 10.62 -444.87, 7.57 -445.53 C4.52 -446.19, 0.35 -459.11, -2.33 -466.94 C-5.02 -474.77, -7.91 -482.46, -8.56 -492.52 C-9.22 -502.58, -7.26 -517.74, -6.28 -527.29 C-5.31 -536.85, -4.14 -543.12, -2.71 -549.87 C-1.29 -556.62, 4.91 -565.23, 2.26 -567.8 C-0.39 -570.37, -11.64 -567.78, -18.61 -565.29 C-25.58 -562.8, -33.42 -557.48, -39.56 -552.86 C-45.71 -548.25, -51.86 -542.95, -55.49 -537.6 C-59.12 -532.25, -60.54 -527.39, -61.34 -520.75 C-62.15 -514.12, -61.86 -507.6, -60.31 -497.8 C-58.77 -488, -56.13 -474.99, -52.08 -461.96 C-48.03 -448.92, -41.1 -435.02, -36.02 -419.59 C-30.93 -404.17, -21.57 -375.36, -21.56 -369.41 C-21.56 -363.45, -31.34 -378.79, -35.99 -383.87 C-40.65 -388.94, -43.72 -392.76, -49.48 -399.85 C-55.25 -406.95, -65.05 -417.58, -70.55 -426.42 C-76.05 -435.27, -78.42 -442.5, -82.49 -452.91 C-86.55 -463.33, -91.94 -478.15, -94.94 -488.92 C-97.95 -499.7, -95.75 -515.8, -100.51 -517.56 C-105.28 -519.31, -116.27 -506.39, -123.52 -499.44 C-130.78 -492.49, -139.2 -483.63, -144.03 -475.85 C-148.87 -468.06, -154.03 -462.38, -152.53 -452.72 C-151.02 -443.07, -142.03 -430.54, -135.01 -417.93 C-127.98 -405.31, -117.59 -389.55, -110.37 -377.01 C-103.14 -364.47, -96.91 -352.06, -91.66 -342.69 C-86.4 -333.32, -81.41 -326.25, -78.85 -320.77 C-76.29 -315.3, -71.23 -308.94, -76.28 -309.84 C-81.33 -310.74, -100.78 -320.85, -109.15 -326.16 C-117.52 -331.48, -121 -336.11, -126.51 -341.73 C-132.01 -347.36, -136.34 -351.78, -142.17 -359.91 C-148 -368.03, -156.55 -382.72, -161.5 -390.49 C-166.46 -398.26, -169.01 -401.43, -171.91 -406.51 C-174.82 -411.6, -176.11 -422.67, -178.93 -421.01 C-181.75 -419.34, -185.99 -405.54, -188.82 -396.52 C-191.65 -387.5, -193.87 -377.31, -195.93 -366.87 C-197.99 -356.44, -199.69 -346.92, -201.2 -333.92 C-202.7 -320.92, -204.9 -301.9, -204.95 -288.88 C-205.01 -275.86, -204.89 -267.75, -201.52 -255.81 C-198.15 -243.87, -191.7 -227.67, -184.74 -217.25 C-177.79 -206.82, -169.6 -199.46, -159.81 -193.25 C-150.02 -187.04, -136.47 -181.24, -126.01 -180 C-115.54 -178.77, -106.95 -181.99, -97.02 -185.85 C-87.08 -189.71, -75.01 -196.73, -66.38 -203.19 C-57.76 -209.64, -48.79 -220.99, -45.28 -224.55 M0 0 C-2.08 -5.02, -9.01 -21.21, -12.49 -30.13 C-15.96 -39.04, -18.59 -46.47, -20.86 -53.51 C-23.13 -60.55, -24.33 -65.69, -26.11 -72.35 C-27.89 -79.02, -30.15 -86.67, -31.55 -93.51 C-32.94 -100.35, -33.76 -107.05, -34.46 -113.4 C-35.17 -119.74, -35.39 -124.22, -35.78 -131.58 C-36.18 -138.95, -37.05 -148.18, -36.84 -157.58 C-36.62 -166.99, -36.81 -176.19, -34.51 -188 C-32.21 -199.82, -28.05 -213.4, -23.03 -228.49 C-18.02 -243.57, -10.69 -261.82, -4.41 -278.5 C1.87 -295.18, 11.18 -317.14, 14.66 -328.57 C18.13 -340, 17.75 -342.75, 16.43 -347.07 C15.11 -351.4, 10.29 -354.87, 6.72 -354.53 C3.15 -354.18, -1.49 -349.94, -5.01 -345 C-8.53 -340.05, -11.97 -333.17, -14.41 -324.87 C-16.84 -316.57, -18.57 -305.49, -19.61 -295.21 C-20.65 -284.93, -20.84 -277.13, -20.66 -263.2 C-20.49 -249.26, -20.21 -226.94, -18.56 -211.62 C-16.92 -196.3, -14.67 -182.69, -10.79 -171.29 C-6.91 -159.89, -0.71 -150.1, 4.72 -143.24 C10.14 -136.38, 14.61 -132.22, 21.77 -130.12 C28.94 -128.03, 36.45 -128.98, 47.7 -130.67 C58.95 -132.36, 78.84 -136.86, 89.27 -140.26 C99.69 -143.66, 103.52 -146.84, 110.27 -151.06 C117.02 -155.28, 123.69 -160.47, 129.75 -165.57 C135.82 -170.66, 149.25 -178.91, 146.65 -181.64 C144.06 -184.37, 123.84 -181.26, 114.19 -181.95 C104.54 -182.63, 96.94 -184.04, 88.75 -185.76 C80.56 -187.49, 72.13 -189.81, 65.06 -192.31 C57.99 -194.8, 51.56 -197.15, 46.33 -200.74 C41.11 -204.33, 35.41 -209.57, 33.72 -213.86 C32.03 -218.16, 30.68 -224.31, 36.18 -226.49 C41.68 -228.67, 57.61 -226.93, 66.72 -226.92 C75.82 -226.9, 80.51 -226.63, 90.8 -226.41 C101.09 -226.19, 117.28 -225.83, 128.46 -225.58 C139.63 -225.33, 149.49 -222.91, 157.85 -224.93 C166.21 -226.94, 172.76 -229.26, 178.61 -237.67 C184.46 -246.09, 189.64 -264.11, 192.95 -275.42 C196.26 -286.73, 197.3 -297.95, 198.49 -305.55 C199.68 -313.14, 203.78 -321.64, 200.09 -320.98 C196.4 -320.33, 184.83 -307.63, 176.32 -301.62 C167.82 -295.6, 157.9 -289.35, 149.06 -284.9 C140.22 -280.45, 133.38 -277.16, 123.26 -274.91 C113.14 -272.66, 96.48 -270.63, 88.34 -271.4 C80.19 -272.18, 76.17 -276.43, 74.38 -279.57 C72.59 -282.71, 70.7 -285.22, 77.57 -290.25 C84.45 -295.29, 104.83 -304.08, 115.64 -309.79 C126.46 -315.51, 134.61 -320.24, 142.45 -324.55 C150.3 -328.85, 155.35 -329.42, 162.71 -335.62 C170.07 -341.81, 182.12 -351.5, 186.63 -361.73 C191.15 -371.95, 189.97 -386.28, 189.78 -396.97 C189.59 -407.66, 187.99 -422.58, 185.51 -425.86 C183.02 -429.15, 180.24 -421.02, 174.87 -416.66 C169.5 -412.3, 159.78 -404.85, 153.29 -399.7 C146.8 -394.55, 142.86 -390.79, 135.94 -385.79 C129.02 -380.78, 120.21 -373.8, 111.75 -369.68 C103.29 -365.56, 87.73 -359.05, 85.17 -361.07 C82.6 -363.09, 90.81 -374.25, 96.37 -381.8 C101.93 -389.34, 110.47 -397.11, 118.53 -406.35 C126.59 -415.6, 137.81 -428.87, 144.72 -437.25 C151.62 -445.63, 156.02 -448.76, 159.98 -456.64 C163.93 -464.52, 169.41 -474.03, 168.42 -484.54 C167.44 -495.05, 158.1 -509.82, 154.06 -519.7 C150.03 -529.58, 147.06 -535.92, 144.23 -543.82 C141.4 -551.72, 139.09 -560.44, 137.11 -567.11 C135.12 -573.77, 137.26 -582.36, 132.33 -583.8 C127.4 -585.23, 116.62 -578.03, 107.53 -575.72 C98.43 -573.42, 88.47 -571.54, 77.74 -569.97 C67.02 -568.39, 50.83 -568.22, 43.18 -566.29 C35.53 -564.35, 34.57 -564.21, 31.85 -558.36 C29.14 -552.51, 28.5 -542.04, 26.86 -531.2 C25.23 -520.37, 23.86 -504.71, 22.05 -493.34 C20.23 -481.96, 18.38 -470.94, 15.97 -462.97 C13.56 -455, 10.62 -444.87, 7.57 -445.53 C4.52 -446.19, 0.35 -459.11, -2.33 -466.94 C-5.02 -474.77, -7.91 -482.46, -8.56 -492.52 C-9.22 -502.58, -7.26 -517.74, -6.28 -527.29 C-5.31 -536.85, -4.14 -543.12, -2.71 -549.87 C-1.29 -556.62, 4.91 -565.23, 2.26 -567.8 C-0.39 -570.37, -11.64 -567.78, -18.61 -565.29 C-25.58 -562.8, -33.42 -557.48, -39.56 -552.86 C-45.71 -548.25, -51.86 -542.95, -55.49 -537.6 C-59.12 -532.25, -60.54 -527.39, -61.34 -520.75 C-62.15 -514.12, -61.86 -507.6, -60.31 -497.8 C-58.77 -488, -56.13 -474.99, -52.08 -461.96 C-48.03 -448.92, -41.1 -435.02, -36.02 -419.59 C-30.93 -404.17, -21.57 -375.36, -21.56 -369.41 C-21.56 -363.45, -31.34 -378.79, -35.99 -383.87 C-40.65 -388.94, -43.72 -392.76, -49.48 -399.85 C-55.25 -406.95, -65.05 -417.58, -70.55 -426.42 C-76.05 -435.27, -78.42 -442.5, -82.49 -452.91 C-86.55 -463.33, -91.94 -478.15, -94.94 -488.92 C-97.95 -499.7, -95.75 -515.8, -100.51 -517.56 C-105.28 -519.31, -116.27 -506.39, -123.52 -499.44 C-130.78 -492.49, -139.2 -483.63, -144.03 -475.85 C-148.87 -468.06, -154.03 -462.38, -152.53 -452.72 C-151.02 -443.07, -142.03 -430.54, -135.01 -417.93 C-127.98 -405.31, -117.59 -389.55, -110.37 -377.01 C-103.14 -364.47, -96.91 -352.06, -91.66 -342.69 C-86.4 -333.32, -81.41 -326.25, -78.85 -320.77 C-76.29 -315.3, -71.23 -308.94, -76.28 -309.84 C-81.33 -310.74, -100.78 -320.85, -109.15 -326.16 C-117.52 -331.48, -121 -336.11, -126.51 -341.73 C-132.01 -347.36, -136.34 -351.78, -142.17 -359.91 C-148 -368.03, -156.55 -382.72, -161.5 -390.49 C-166.46 -398.26, -169.01 -401.43, -171.91 -406.51 C-174.82 -411.6, -176.11 -422.67, -178.93 -421.01 C-181.75 -419.34, -185.99 -405.54, -188.82 -396.52 C-191.65 -387.5, -193.87 -377.31, -195.93 -366.87 C-197.99 -356.44, -199.69 -346.92, -201.2 -333.92 C-202.7 -320.92, -204.9 -301.9, -204.95 -288.88 C-205.01 -275.86, -204.89 -267.75, -201.52 -255.81 C-198.15 -243.87, -191.7 -227.67, -184.74 -217.25 C-177.79 -206.82, -169.6 -199.46, -159.81 -193.25 C-150.02 -187.04, -136.47 -181.24, -126.01 -180 C-115.54 -178.77, -106.95 -181.99, -97.02 -185.85 C-87.08 -189.71, -75.01 -196.73, -66.38 -203.19 C-57.76 -209.64, -48.79 -220.99, -45.28 -224.55" stroke="#000000" stroke-width="4" fill="none"/></g></g><mask/><g stroke-linecap="round"><g transform="translate(218.59689750667735 596.5005688566446) rotate(0 -2.432095981667544 -291.8977039674381)"><path d="M0 0 C-2.08 -5.02, -9.01 -21.21, -12.49 -30.13 C-15.96 -39.04, -18.59 -46.47, -20.86 -53.51 C-23.13 -60.55, -24.33 -65.69, -26.11 -72.35 C-27.89 -79.02, -30.15 -86.67, -31.55 -93.51 C-32.94 -100.35, -33.76 -107.05, -34.46 -113.4 C-35.17 -119.74, -35.39 -124.22, -35.78 -131.58 C-36.18 -138.95, -37.05 -148.18, -36.84 -157.58 C-36.62 -166.99, -36.81 -176.19, -34.51 -188 C-32.21 -199.82, -28.05 -213.4, -23.03 -228.49 C-18.02 -243.57, -10.69 -261.82, -4.41 -278.5 C1.87 -295.18, 11.18 -317.14, 14.66 -328.57 C18.13 -340, 17.75 -342.75, 16.43 -347.07 C15.11 -351.4, 10.29 -354.87, 6.72 -354.53 C3.15 -354.18, -1.49 -349.94, -5.01 -345 C-8.53 -340.05, -11.97 -333.17, -14.41 -324.87 C-16.84 -316.57, -18.57 -305.49, -19.61 -295.21 C-20.65 -284.93, -20.84 -277.13, -20.66 -263.2 C-20.49 -249.26, -20.21 -226.94, -18.56 -211.62 C-16.92 -196.3, -14.67 -182.69, -10.79 -171.29 C-6.91 -159.89, -0.71 -150.1, 4.72 -143.24 C10.14 -136.38, 14.61 -132.22, 21.77 -130.12 C28.94 -128.03, 36.45 -128.98, 47.7 -130.67 C58.95 -132.36, 78.84 -136.86, 89.27 -140.26 C99.69 -143.66, 103.52 -146.84, 110.27 -151.06 C117.02 -155.28, 123.69 -160.47, 129.75 -165.57 C135.82 -170.66, 149.25 -178.91, 146.65 -181.64 C144.06 -184.37, 123.84 -181.26, 114.19 -181.95 C104.54 -182.63, 96.94 -184.04, 88.75 -185.76 C80.56 -187.49, 72.13 -189.81, 65.06 -192.31 C57.99 -194.8, 51.56 -197.15, 46.33 -200.74 C41.11 -204.33, 35.41 -209.57, 33.72 -213.86 C32.03 -218.16, 30.68 -224.31, 36.18 -226.49 C41.68 -228.67, 57.61 -226.93, 66.72 -226.92 C75.82 -226.9, 80.51 -226.63, 90.8 -226.41 C101.09 -226.19, 117.28 -225.83, 128.46 -225.58 C139.63 -225.33, 149.49 -222.91, 157.85 -224.93 C166.21 -226.94, 172.76 -229.26, 178.61 -237.67 C184.46 -246.09, 189.64 -264.11, 192.95 -275.42 C196.26 -286.73, 197.3 -297.95, 198.49 -305.55 C199.68 -313.14, 203.78 -321.64, 200.09 -320.98 C196.4 -320.33, 184.83 -307.63, 176.32 -301.62 C167.82 -295.6, 157.9 -289.35, 149.06 -284.9 C140.22 -280.45, 133.38 -277.16, 123.26 -274.91 C113.14 -272.66, 96.48 -270.63, 88.34 -271.4 C80.19 -272.18, 76.17 -276.43, 74.38 -279.57 C72.59 -282.71, 70.7 -285.22, 77.57 -290.25 C84.45 -295.29, 104.83 -304.08, 115.64 -309.79 C126.46 -315.51, 134.61 -320.24, 142.45 -324.55 C150.3 -328.85, 155.35 -329.42, 162.71 -335.62 C170.07 -341.81, 182.12 -351.5, 186.63 -361.73 C191.15 -371.95, 189.97 -386.28, 189.78 -396.97 C189.59 -407.66, 187.99 -422.58, 185.51 -425.86 C183.02 -429.15, 180.24 -421.02, 174.87 -416.66 C169.5 -412.3, 159.78 -404.85, 153.29 -399.7 C146.8 -394.55, 142.86 -390.79, 135.94 -385.79 C129.02 -380.78, 120.21 -373.8, 111.75 -369.68 C103.29 -365.56, 87.73 -359.05, 85.17 -361.07 C82.6 -363.09, 90.81 -374.25, 96.37 -381.8 C101.93 -389.34, 110.47 -397.11, 118.53 -406.35 C126.59 -415.6, 137.81 -428.87, 144.72 -437.25 C151.62 -445.63, 156.02 -448.76, 159.98 -456.64 C163.93 -464.52, 169.41 -474.03, 168.42 -484.54 C167.44 -495.05, 158.1 -509.82, 154.06 -519.7 C150.03 -529.58, 147.06 -535.92, 144.23 -543.82 C141.4 -551.72, 139.09 -560.44, 137.11 -567.11 C135.12 -573.77, 137.26 -582.36, 132.33 -583.8 C127.4 -585.23, 116.62 -578.03, 107.53 -575.72 C98.43 -573.42, 88.47 -571.54, 77.74 -569.97 C67.02 -568.39, 50.83 -568.22, 43.18 -566.29 C35.53 -564.35, 34.57 -564.21, 31.85 -558.36 C29.14 -552.51, 28.5 -542.04, 26.86 -531.2 C25.23 -520.37, 23.86 -504.71, 22.05 -493.34 C20.23 -481.96, 18.38 -470.94, 15.97 -462.97 C13.56 -455, 10.62 -444.87, 7.57 -445.53 C4.52 -446.19, 0.35 -459.11, -2.33 -466.94 C-5.02 -474.77, -7.91 -482.46, -8.56 -492.52 C-9.22 -502.58, -7.26 -517.74, -6.28 -527.29 C-5.31 -536.85, -4.14 -543.12, -2.71 -549.87 C-1.29 -556.62, 4.91 -565.23, 2.26 -567.8 C-0.39 -570.37, -11.64 -567.78, -18.61 -565.29 C-25.58 -562.8, -33.42 -557.48, -39.56 -552.86 C-45.71 -548.25, -51.86 -542.95, -55.49 -537.6 C-59.12 -532.25, -60.54 -527.39, -61.34 -520.75 C-62.15 -514.12, -61.86 -507.6, -60.31 -497.8 C-58.77 -488, -56.13 -474.99, -52.08 -461.96 C-48.03 -448.92, -41.1 -435.02, -36.02 -419.59 C-30.93 -404.17, -21.57 -375.36, -21.56 -369.41 C-21.56 -363.45, -31.34 -378.79, -35.99 -383.87 C-40.65 -388.94, -43.72 -392.76, -49.48 -399.85 C-55.25 -406.95, -65.05 -417.58, -70.55 -426.42 C-76.05 -435.27, -78.42 -442.5, -82.49 -452.91 C-86.55 -463.33, -91.94 -478.15, -94.94 -488.92 C-97.95 -499.7, -95.75 -515.8, -100.51 -517.56 C-105.28 -519.31, -116.27 -506.39, -123.52 -499.44 C-130.78 -492.49, -139.2 -483.63, -144.03 -475.85 C-148.87 -468.06, -154.03 -462.38, -152.53 -452.72 C-151.02 -443.07, -142.03 -430.54, -135.01 -417.93 C-127.98 -405.31, -117.59 -389.55, -110.37 -377.01 C-103.14 -364.47, -96.91 -352.06, -91.66 -342.69 C-86.4 -333.32, -81.41 -326.25, -78.85 -320.77 C-76.29 -315.3, -71.23 -308.94, -76.28 -309.84 C-81.33 -310.74, -100.78 -320.85, -109.15 -326.16 C-117.52 -331.48, -121 -336.11, -126.51 -341.73 C-132.01 -347.36, -136.34 -351.78, -142.17 -359.91 C-148 -368.03, -156.55 -382.72, -161.5 -390.49 C-166.46 -398.26, -169.01 -401.43, -171.91 -406.51 C-174.82 -411.6, -176.11 -422.67, -178.93 -421.01 C-181.75 -419.34, -185.99 -405.54, -188.82 -396.52 C-191.65 -387.5, -193.87 -377.31, -195.93 -366.87 C-197.99 -356.44, -199.69 -346.92, -201.2 -333.92 C-202.7 -320.92, -204.9 -301.9, -204.95 -288.88 C-205.01 -275.86, -204.89 -267.75, -201.52 -255.81 C-198.15 -243.87, -191.7 -227.67, -184.74 -217.25 C-177.79 -206.82, -169.6 -199.46, -159.81 -193.25 C-150.02 -187.04, -136.47 -181.24, -126.01 -180 C-115.54 -178.77, -106.95 -181.99, -97.02 -185.85 C-87.08 -189.71, -75.01 -196.73, -66.38 -203.19 C-57.76 -209.64, -48.79 -220.99, -45.28 -224.55 M0 0 C-2.08 -5.02, -9.01 -21.21, -12.49 -30.13 C-15.96 -39.04, -18.59 -46.47, -20.86 -53.51 C-23.13 -60.55, -24.33 -65.69, -26.11 -72.35 C-27.89 -79.02, -30.15 -86.67, -31.55 -93.51 C-32.94 -100.35, -33.76 -107.05, -34.46 -113.4 C-35.17 -119.74, -35.39 -124.22, -35.78 -131.58 C-36.18 -138.95, -37.05 -148.18, -36.84 -157.58 C-36.62 -166.99, -36.81 -176.19, -34.51 -188 C-32.21 -199.82, -28.05 -213.4, -23.03 -228.49 C-18.02 -243.57, -10.69 -261.82, -4.41 -278.5 C1.87 -295.18, 11.18 -317.14, 14.66 -328.57 C18.13 -340, 17.75 -342.75, 16.43 -347.07 C15.11 -351.4, 10.29 -354.87, 6.72 -354.53 C3.15 -354.18, -1.49 -349.94, -5.01 -345 C-8.53 -340.05, -11.97 -333.17, -14.41 -324.87 C-16.84 -316.57, -18.57 -305.49, -19.61 -295.21 C-20.65 -284.93, -20.84 -277.13, -20.66 -263.2 C-20.49 -249.26, -20.21 -226.94, -18.56 -211.62 C-16.92 -196.3, -14.67 -182.69, -10.79 -171.29 C-6.91 -159.89, -0.71 -150.1, 4.72 -143.24 C10.14 -136.38, 14.61 -132.22, 21.77 -130.12 C28.94 -128.03, 36.45 -128.98, 47.7 -130.67 C58.95 -132.36, 78.84 -136.86, 89.27 -140.26 C99.69 -143.66, 103.52 -146.84, 110.27 -151.06 C117.02 -155.28, 123.69 -160.47, 129.75 -165.57 C135.82 -170.66, 149.25 -178.91, 146.65 -181.64 C144.06 -184.37, 123.84 -181.26, 114.19 -181.95 C104.54 -182.63, 96.94 -184.04, 88.75 -185.76 C80.56 -187.49, 72.13 -189.81, 65.06 -192.31 C57.99 -194.8, 51.56 -197.15, 46.33 -200.74 C41.11 -204.33, 35.41 -209.57, 33.72 -213.86 C32.03 -218.16, 30.68 -224.31, 36.18 -226.49 C41.68 -228.67, 57.61 -226.93, 66.72 -226.92 C75.82 -226.9, 80.51 -226.63, 90.8 -226.41 C101.09 -226.19, 117.28 -225.83, 128.46 -225.58 C139.63 -225.33, 149.49 -222.91, 157.85 -224.93 C166.21 -226.94, 172.76 -229.26, 178.61 -237.67 C184.46 -246.09, 189.64 -264.11, 192.95 -275.42 C196.26 -286.73, 197.3 -297.95, 198.49 -305.55 C199.68 -313.14, 203.78 -321.64, 200.09 -320.98 C196.4 -320.33, 184.83 -307.63, 176.32 -301.62 C167.82 -295.6, 157.9 -289.35, 149.06 -284.9 C140.22 -280.45, 133.38 -277.16, 123.26 -274.91 C113.14 -272.66, 96.48 -270.63, 88.34 -271.4 C80.19 -272.18, 76.17 -276.43, 74.38 -279.57 C72.59 -282.71, 70.7 -285.22, 77.57 -290.25 C84.45 -295.29, 104.83 -304.08, 115.64 -309.79 C126.46 -315.51, 134.61 -320.24, 142.45 -324.55 C150.3 -328.85, 155.35 -329.42, 162.71 -335.62 C170.07 -341.81, 182.12 -351.5, 186.63 -361.73 C191.15 -371.95, 189.97 -386.28, 189.78 -396.97 C189.59 -407.66, 187.99 -422.58, 185.51 -425.86 C183.02 -429.15, 180.24 -421.02, 174.87 -416.66 C169.5 -412.3, 159.78 -404.85, 153.29 -399.7 C146.8 -394.55, 142.86 -390.79, 135.94 -385.79 C129.02 -380.78, 120.21 -373.8, 111.75 -369.68 C103.29 -365.56, 87.73 -359.05, 85.17 -361.07 C82.6 -363.09, 90.81 -374.25, 96.37 -381.8 C101.93 -389.34, 110.47 -397.11, 118.53 -406.35 C126.59 -415.6, 137.81 -428.87, 144.72 -437.25 C151.62 -445.63, 156.02 -448.76, 159.98 -456.64 C163.93 -464.52, 169.41 -474.03, 168.42 -484.54 C167.44 -495.05, 158.1 -509.82, 154.06 -519.7 C150.03 -529.58, 147.06 -535.92, 144.23 -543.82 C141.4 -551.72, 139.09 -560.44, 137.11 -567.11 C135.12 -573.77, 137.26 -582.36, 132.33 -583.8 C127.4 -585.23, 116.62 -578.03, 107.53 -575.72 C98.43 -573.42, 88.47 -571.54, 77.74 -569.97 C67.02 -568.39, 50.83 -568.22, 43.18 -566.29 C35.53 -564.35, 34.57 -564.21, 31.85 -558.36 C29.14 -552.51, 28.5 -542.04, 26.86 -531.2 C25.23 -520.37, 23.86 -504.71, 22.05 -493.34 C20.23 -481.96, 18.38 -470.94, 15.97 -462.97 C13.56 -455, 10.62 -444.87, 7.57 -445.53 C4.52 -446.19, 0.35 -459.11, -2.33 -466.94 C-5.02 -474.77, -7.91 -482.46, -8.56 -492.52 C-9.22 -502.58, -7.26 -517.74, -6.28 -527.29 C-5.31 -536.85, -4.14 -543.12, -2.71 -549.87 C-1.29 -556.62, 4.91 -565.23, 2.26 -567.8 C-0.39 -570.37, -11.64 -567.78, -18.61 -565.29 C-25.58 -562.8, -33.42 -557.48, -39.56 -552.86 C-45.71 -548.25, -51.86 -542.95, -55.49 -537.6 C-59.12 -532.25, -60.54 -527.39, -61.34 -520.75 C-62.15 -514.12, -61.86 -507.6, -60.31 -497.8 C-58.77 -488, -56.13 -474.99, -52.08 -461.96 C-48.03 -448.92, -41.1 -435.02, -36.02 -419.59 C-30.93 -404.17, -21.57 -375.36, -21.56 -369.41 C-21.56 -363.45, -31.34 -378.79, -35.99 -383.87 C-40.65 -388.94, -43.72 -392.76, -49.48 -399.85 C-55.25 -406.95, -65.05 -417.58, -70.55 -426.42 C-76.05 -435.27, -78.42 -442.5, -82.49 -452.91 C-86.55 -463.33, -91.94 -478.15, -94.94 -488.92 C-97.95 -499.7, -95.75 -515.8, -100.51 -517.56 C-105.28 -519.31, -116.27 -506.39, -123.52 -499.44 C-130.78 -492.49, -139.2 -483.63, -144.03 -475.85 C-148.87 -468.06, -154.03 -462.38, -152.53 -452.72 C-151.02 -443.07, -142.03 -430.54, -135.01 -417.93 C-127.98 -405.31, -117.59 -389.55, -110.37 -377.01 C-103.14 -364.47, -96.91 -352.06, -91.66 -342.69 C-86.4 -333.32, -81.41 -326.25, -78.85 -320.77 C-76.29 -315.3, -71.23 -308.94, -76.28 -309.84 C-81.33 -310.74, -100.78 -320.85, -109.15 -326.16 C-117.52 -331.48, -121 -336.11, -126.51 -341.73 C-132.01 -347.36, -136.34 -351.78, -142.17 -359.91 C-148 -368.03, -156.55 -382.72, -161.5 -390.49 C-166.46 -398.26, -169.01 -401.43, -171.91 -406.51 C-174.82 -411.6, -176.11 -422.67, -178.93 -421.01 C-181.75 -419.34, -185.99 -405.54, -188.82 -396.52 C-191.65 -387.5, -193.87 -377.31, -195.93 -366.87 C-197.99 -356.44, -199.69 -346.92, -201.2 -333.92 C-202.7 -320.92, -204.9 -301.9, -204.95 -288.88 C-205.01 -275.86, -204.89 -267.75, -201.52 -255.81 C-198.15 -243.87, -191.7 -227.67, -184.74 -217.25 C-177.79 -206.82, -169.6 -199.46, -159.81 -193.25 C-150.02 -187.04, -136.47 -181.24, -126.01 -180 C-115.54 -178.77, -106.95 -181.99, -97.02 -185.85 C-87.08 -189.71, -75.01 -196.73, -66.38 -203.19 C-57.76 -209.64, -48.79 -220.99, -45.28 -224.55" stroke="#000000" stroke-width="4" fill="none"/></g></g><mask/><g stroke-linecap="round"><g transform="translate(214.96213188167735 597.3462719816445) rotate(0 -2.432095981667544 -291.8977039674381)"><path d="M0 0 C-2.08 -5.02, -9.01 -21.21, -12.49 -30.13 C-15.96 -39.04, -18.59 -46.47, -20.86 -53.51 C-23.13 -60.55, -24.33 -65.69, -26.11 -72.35 C-27.89 -79.02, -30.15 -86.67, -31.55 -93.51 C-32.94 -100.35, -33.76 -107.05, -34.46 -113.4 C-35.17 -119.74, -35.39 -124.22, -35.78 -131.58 C-36.18 -138.95, -37.05 -148.18, -36.84 -157.58 C-36.62 -166.99, -36.81 -176.19, -34.51 -188 C-32.21 -199.82, -28.05 -213.4, -23.03 -228.49 C-18.02 -243.57, -10.69 -261.82, -4.41 -278.5 C1.87 -295.18, 11.18 -317.14, 14.66 -328.57 C18.13 -340, 17.75 -342.75, 16.43 -347.07 C15.11 -351.4, 10.29 -354.87, 6.72 -354.53 C3.15 -354.18, -1.49 -349.94, -5.01 -345 C-8.53 -340.05, -11.97 -333.17, -14.41 -324.87 C-16.84 -316.57, -18.57 -305.49, -19.61 -295.21 C-20.65 -284.93, -20.84 -277.13, -20.66 -263.2 C-20.49 -249.26, -20.21 -226.94, -18.56 -211.62 C-16.92 -196.3, -14.67 -182.69, -10.79 -171.29 C-6.91 -159.89, -0.71 -150.1, 4.72 -143.24 C10.14 -136.38, 14.61 -132.22, 21.77 -130.12 C28.94 -128.03, 36.45 -128.98, 47.7 -130.67 C58.95 -132.36, 78.84 -136.86, 89.27 -140.26 C99.69 -143.66, 103.52 -146.84, 110.27 -151.06 C117.02 -155.28, 123.69 -160.47, 129.75 -165.57 C135.82 -170.66, 149.25 -178.91, 146.65 -181.64 C144.06 -184.37, 123.84 -181.26, 114.19 -181.95 C104.54 -182.63, 96.94 -184.04, 88.75 -185.76 C80.56 -187.49, 72.13 -189.81, 65.06 -192.31 C57.99 -194.8, 51.56 -197.15, 46.33 -200.74 C41.11 -204.33, 35.41 -209.57, 33.72 -213.86 C32.03 -218.16, 30.68 -224.31, 36.18 -226.49 C41.68 -228.67, 57.61 -226.93, 66.72 -226.92 C75.82 -226.9, 80.51 -226.63, 90.8 -226.41 C101.09 -226.19, 117.28 -225.83, 128.46 -225.58 C139.63 -225.33, 149.49 -222.91, 157.85 -224.93 C166.21 -226.94, 172.76 -229.26, 178.61 -237.67 C184.46 -246.09, 189.64 -264.11, 192.95 -275.42 C196.26 -286.73, 197.3 -297.95, 198.49 -305.55 C199.68 -313.14, 203.78 -321.64, 200.09 -320.98 C196.4 -320.33, 184.83 -307.63, 176.32 -301.62 C167.82 -295.6, 157.9 -289.35, 149.06 -284.9 C140.22 -280.45, 133.38 -277.16, 123.26 -274.91 C113.14 -272.66, 96.48 -270.63, 88.34 -271.4 C80.19 -272.18, 76.17 -276.43, 74.38 -279.57 C72.59 -282.71, 70.7 -285.22, 77.57 -290.25 C84.45 -295.29, 104.83 -304.08, 115.64 -309.79 C126.46 -315.51, 134.61 -320.24, 142.45 -324.55 C150.3 -328.85, 155.35 -329.42, 162.71 -335.62 C170.07 -341.81, 182.12 -351.5, 186.63 -361.73 C191.15 -371.95, 189.97 -386.28, 189.78 -396.97 C189.59 -407.66, 187.99 -422.58, 185.51 -425.86 C183.02 -429.15, 180.24 -421.02, 174.87 -416.66 C169.5 -412.3, 159.78 -404.85, 153.29 -399.7 C146.8 -394.55, 142.86 -390.79, 135.94 -385.79 C129.02 -380.78, 120.21 -373.8, 111.75 -369.68 C103.29 -365.56, 87.73 -359.05, 85.17 -361.07 C82.6 -363.09, 90.81 -374.25, 96.37 -381.8 C101.93 -389.34, 110.47 -397.11, 118.53 -406.35 C126.59 -415.6, 137.81 -428.87, 144.72 -437.25 C151.62 -445.63, 156.02 -448.76, 159.98 -456.64 C163.93 -464.52, 169.41 -474.03, 168.42 -484.54 C167.44 -495.05, 158.1 -509.82, 154.06 -519.7 C150.03 -529.58, 147.06 -535.92, 144.23 -543.82 C141.4 -551.72, 139.09 -560.44, 137.11 -567.11 C135.12 -573.77, 137.26 -582.36, 132.33 -583.8 C127.4 -585.23, 116.62 -578.03, 107.53 -575.72 C98.43 -573.42, 88.47 -571.54, 77.74 -569.97 C67.02 -568.39, 50.83 -568.22, 43.18 -566.29 C35.53 -564.35, 34.57 -564.21, 31.85 -558.36 C29.14 -552.51, 28.5 -542.04, 26.86 -531.2 C25.23 -520.37, 23.86 -504.71, 22.05 -493.34 C20.23 -481.96, 18.38 -470.94, 15.97 -462.97 C13.56 -455, 10.62 -444.87, 7.57 -445.53 C4.52 -446.19, 0.35 -459.11, -2.33 -466.94 C-5.02 -474.77, -7.91 -482.46, -8.56 -492.52 C-9.22 -502.58, -7.26 -517.74, -6.28 -527.29 C-5.31 -536.85, -4.14 -543.12, -2.71 -549.87 C-1.29 -556.62, 4.91 -565.23, 2.26 -567.8 C-0.39 -570.37, -11.64 -567.78, -18.61 -565.29 C-25.58 -562.8, -33.42 -557.48, -39.56 -552.86 C-45.71 -548.25, -51.86 -542.95, -55.49 -537.6 C-59.12 -532.25, -60.54 -527.39, -61.34 -520.75 C-62.15 -514.12, -61.86 -507.6, -60.31 -497.8 C-58.77 -488, -56.13 -474.99, -52.08 -461.96 C-48.03 -448.92, -41.1 -435.02, -36.02 -419.59 C-30.93 -404.17, -21.57 -375.36, -21.56 -369.41 C-21.56 -363.45, -31.34 -378.79, -35.99 -383.87 C-40.65 -388.94, -43.72 -392.76, -49.48 -399.85 C-55.25 -406.95, -65.05 -417.58, -70.55 -426.42 C-76.05 -435.27, -78.42 -442.5, -82.49 -452.91 C-86.55 -463.33, -91.94 -478.15, -94.94 -488.92 C-97.95 -499.7, -95.75 -515.8, -100.51 -517.56 C-105.28 -519.31, -116.27 -506.39, -123.52 -499.44 C-130.78 -492.49, -139.2 -483.63, -144.03 -475.85 C-148.87 -468.06, -154.03 -462.38, -152.53 -452.72 C-151.02 -443.07, -142.03 -430.54, -135.01 -417.93 C-127.98 -405.31, -117.59 -389.55, -110.37 -377.01 C-103.14 -364.47, -96.91 -352.06, -91.66 -342.69 C-86.4 -333.32, -81.41 -326.25, -78.85 -320.77 C-76.29 -315.3, -71.23 -308.94, -76.28 -309.84 C-81.33 -310.74, -100.78 -320.85, -109.15 -326.16 C-117.52 -331.48, -121 -336.11, -126.51 -341.73 C-132.01 -347.36, -136.34 -351.78, -142.17 -359.91 C-148 -368.03, -156.55 -382.72, -161.5 -390.49 C-166.46 -398.26, -169.01 -401.43, -171.91 -406.51 C-174.82 -411.6, -176.11 -422.67, -178.93 -421.01 C-181.75 -419.34, -185.99 -405.54, -188.82 -396.52 C-191.65 -387.5, -193.87 -377.31, -195.93 -366.87 C-197.99 -356.44, -199.69 -346.92, -201.2 -333.92 C-202.7 -320.92, -204.9 -301.9, -204.95 -288.88 C-205.01 -275.86, -204.89 -267.75, -201.52 -255.81 C-198.15 -243.87, -191.7 -227.67, -184.74 -217.25 C-177.79 -206.82, -169.6 -199.46, -159.81 -193.25 C-150.02 -187.04, -136.47 -181.24, -126.01 -180 C-115.54 -178.77, -106.95 -181.99, -97.02 -185.85 C-87.08 -189.71, -75.01 -196.73, -66.38 -203.19 C-57.76 -209.64, -48.79 -220.99, -45.28 -224.55 M0 0 C-2.08 -5.02, -9.01 -21.21, -12.49 -30.13 C-15.96 -39.04, -18.59 -46.47, -20.86 -53.51 C-23.13 -60.55, -24.33 -65.69, -26.11 -72.35 C-27.89 -79.02, -30.15 -86.67, -31.55 -93.51 C-32.94 -100.35, -33.76 -107.05, -34.46 -113.4 C-35.17 -119.74, -35.39 -124.22, -35.78 -131.58 C-36.18 -138.95, -37.05 -148.18, -36.84 -157.58 C-36.62 -166.99, -36.81 -176.19, -34.51 -188 C-32.21 -199.82, -28.05 -213.4, -23.03 -228.49 C-18.02 -243.57, -10.69 -261.82, -4.41 -278.5 C1.87 -295.18, 11.18 -317.14, 14.66 -328.57 C18.13 -340, 17.75 -342.75, 16.43 -347.07 C15.11 -351.4, 10.29 -354.87, 6.72 -354.53 C3.15 -354.18, -1.49 -349.94, -5.01 -345 C-8.53 -340.05, -11.97 -333.17, -14.41 -324.87 C-16.84 -316.57, -18.57 -305.49, -19.61 -295.21 C-20.65 -284.93, -20.84 -277.13, -20.66 -263.2 C-20.49 -249.26, -20.21 -226.94, -18.56 -211.62 C-16.92 -196.3, -14.67 -182.69, -10.79 -171.29 C-6.91 -159.89, -0.71 -150.1, 4.72 -143.24 C10.14 -136.38, 14.61 -132.22, 21.77 -130.12 C28.94 -128.03, 36.45 -128.98, 47.7 -130.67 C58.95 -132.36, 78.84 -136.86, 89.27 -140.26 C99.69 -143.66, 103.52 -146.84, 110.27 -151.06 C117.02 -155.28, 123.69 -160.47, 129.75 -165.57 C135.82 -170.66, 149.25 -178.91, 146.65 -181.64 C144.06 -184.37, 123.84 -181.26, 114.19 -181.95 C104.54 -182.63, 96.94 -184.04, 88.75 -185.76 C80.56 -187.49, 72.13 -189.81, 65.06 -192.31 C57.99 -194.8, 51.56 -197.15, 46.33 -200.74 C41.11 -204.33, 35.41 -209.57, 33.72 -213.86 C32.03 -218.16, 30.68 -224.31, 36.18 -226.49 C41.68 -228.67, 57.61 -226.93, 66.72 -226.92 C75.82 -226.9, 80.51 -226.63, 90.8 -226.41 C101.09 -226.19, 117.28 -225.83, 128.46 -225.58 C139.63 -225.33, 149.49 -222.91, 157.85 -224.93 C166.21 -226.94, 172.76 -229.26, 178.61 -237.67 C184.46 -246.09, 189.64 -264.11, 192.95 -275.42 C196.26 -286.73, 197.3 -297.95, 198.49 -305.55 C199.68 -313.14, 203.78 -321.64, 200.09 -320.98 C196.4 -320.33, 184.83 -307.63, 176.32 -301.62 C167.82 -295.6, 157.9 -289.35, 149.06 -284.9 C140.22 -280.45, 133.38 -277.16, 123.26 -274.91 C113.14 -272.66, 96.48 -270.63, 88.34 -271.4 C80.19 -272.18, 76.17 -276.43, 74.38 -279.57 C72.59 -282.71, 70.7 -285.22, 77.57 -290.25 C84.45 -295.29, 104.83 -304.08, 115.64 -309.79 C126.46 -315.51, 134.61 -320.24, 142.45 -324.55 C150.3 -328.85, 155.35 -329.42, 162.71 -335.62 C170.07 -341.81, 182.12 -351.5, 186.63 -361.73 C191.15 -371.95, 189.97 -386.28, 189.78 -396.97 C189.59 -407.66, 187.99 -422.58, 185.51 -425.86 C183.02 -429.15, 180.24 -421.02, 174.87 -416.66 C169.5 -412.3, 159.78 -404.85, 153.29 -399.7 C146.8 -394.55, 142.86 -390.79, 135.94 -385.79 C129.02 -380.78, 120.21 -373.8, 111.75 -369.68 C103.29 -365.56, 87.73 -359.05, 85.17 -361.07 C82.6 -363.09, 90.81 -374.25, 96.37 -381.8 C101.93 -389.34, 110.47 -397.11, 118.53 -406.35 C126.59 -415.6, 137.81 -428.87, 144.72 -437.25 C151.62 -445.63, 156.02 -448.76, 159.98 -456.64 C163.93 -464.52, 169.41 -474.03, 168.42 -484.54 C167.44 -495.05, 158.1 -509.82, 154.06 -519.7 C150.03 -529.58, 147.06 -535.92, 144.23 -543.82 C141.4 -551.72, 139.09 -560.44, 137.11 -567.11 C135.12 -573.77, 137.26 -582.36, 132.33 -583.8 C127.4 -585.23, 116.62 -578.03, 107.53 -575.72 C98.43 -573.42, 88.47 -571.54, 77.74 -569.97 C67.02 -568.39, 50.83 -568.22, 43.18 -566.29 C35.53 -564.35, 34.57 -564.21, 31.85 -558.36 C29.14 -552.51, 28.5 -542.04, 26.86 -531.2 C25.23 -520.37, 23.86 -504.71, 22.05 -493.34 C20.23 -481.96, 18.38 -470.94, 15.97 -462.97 C13.56 -455, 10.62 -444.87, 7.57 -445.53 C4.52 -446.19, 0.35 -459.11, -2.33 -466.94 C-5.02 -474.77, -7.91 -482.46, -8.56 -492.52 C-9.22 -502.58, -7.26 -517.74, -6.28 -527.29 C-5.31 -536.85, -4.14 -543.12, -2.71 -549.87 C-1.29 -556.62, 4.91 -565.23, 2.26 -567.8 C-0.39 -570.37, -11.64 -567.78, -18.61 -565.29 C-25.58 -562.8, -33.42 -557.48, -39.56 -552.86 C-45.71 -548.25, -51.86 -542.95, -55.49 -537.6 C-59.12 -532.25, -60.54 -527.39, -61.34 -520.75 C-62.15 -514.12, -61.86 -507.6, -60.31 -497.8 C-58.77 -488, -56.13 -474.99, -52.08 -461.96 C-48.03 -448.92, -41.1 -435.02, -36.02 -419.59 C-30.93 -404.17, -21.57 -375.36, -21.56 -369.41 C-21.56 -363.45, -31.34 -378.79, -35.99 -383.87 C-40.65 -388.94, -43.72 -392.76, -49.48 -399.85 C-55.25 -406.95, -65.05 -417.58, -70.55 -426.42 C-76.05 -435.27, -78.42 -442.5, -82.49 -452.91 C-86.55 -463.33, -91.94 -478.15, -94.94 -488.92 C-97.95 -499.7, -95.75 -515.8, -100.51 -517.56 C-105.28 -519.31, -116.27 -506.39, -123.52 -499.44 C-130.78 -492.49, -139.2 -483.63, -144.03 -475.85 C-148.87 -468.06, -154.03 -462.38, -152.53 -452.72 C-151.02 -443.07, -142.03 -430.54, -135.01 -417.93 C-127.98 -405.31, -117.59 -389.55, -110.37 -377.01 C-103.14 -364.47, -96.91 -352.06, -91.66 -342.69 C-86.4 -333.32, -81.41 -326.25, -78.85 -320.77 C-76.29 -315.3, -71.23 -308.94, -76.28 -309.84 C-81.33 -310.74, -100.78 -320.85, -109.15 -326.16 C-117.52 -331.48, -121 -336.11, -126.51 -341.73 C-132.01 -347.36, -136.34 -351.78, -142.17 -359.91 C-148 -368.03, -156.55 -382.72, -161.5 -390.49 C-166.46 -398.26, -169.01 -401.43, -171.91 -406.51 C-174.82 -411.6, -176.11 -422.67, -178.93 -421.01 C-181.75 -419.34, -185.99 -405.54, -188.82 -396.52 C-191.65 -387.5, -193.87 -377.31, -195.93 -366.87 C-197.99 -356.44, -199.69 -346.92, -201.2 -333.92 C-202.7 -320.92, -204.9 -301.9, -204.95 -288.88 C-205.01 -275.86, -204.89 -267.75, -201.52 -255.81 C-198.15 -243.87, -191.7 -227.67, -184.74 -217.25 C-177.79 -206.82, -169.6 -199.46, -159.81 -193.25 C-150.02 -187.04, -136.47 -181.24, -126.01 -180 C-115.54 -178.77, -106.95 -181.99, -97.02 -185.85 C-87.08 -189.71, -75.01 -196.73, -66.38 -203.19 C-57.76 -209.64, -48.79 -220.99, -45.28 -224.55" stroke="#000000" stroke-width="4" fill="none"/></g></g><mask/></svg>
